# File created by Blade
# Date/Time:  Tue Jan 27 19:38:14 2015
# Frame Rate: 120.000 fps
#------------------------------------------------------
:FULLY-SPECIFIED
:DEGREES
2597
root 4.709845 32.345779 2.038712 -3.549706 2.774588 0.725293
Spine 1.717781 -0.304027 -0.828703
Head 8.708476 -8.923758 3.089854
LeftShoulder -10.017334 -2.835397 26.081417
LeftArm -1.674520 29.677069 -100.985141
LeftForeArm 3.943831 -0.000000 11.099943
LeftHand 10.946321 -0.000000 -3.494936
LeftHandThumb1 -26.253704 0.000000 33.147579
RightShoulder -19.363802 -13.583455 -23.373814
RightArm 9.903017 60.902117 107.396766
RightForeArm 12.713943 -0.000000 103.484250
RightHand 27.246160 -0.000000 -24.324720
RightHandThumb1 -24.326973 -0.000000 -32.862282
LeftUpLeg 7.188187 -3.660574 -3.916365
LeftLeg 3.175014 -0.000000 -0.000000
LeftFoot -16.133417 11.864031 -20.984457
LeftToeBase 17.367323 -0.000000 -0.000000
RightUpLeg 6.839977 -7.582364 2.218712
RightLeg 3.213437 -0.000000 -0.000000
RightFoot -13.706691 -15.171061 14.224988
RightToeBase 8.932241 -0.000000 -0.000000
2598
root 4.711364 32.348731 2.050510 -3.515902 2.920132 0.712916
Spine 1.679159 -0.606898 -0.846835
Head 8.691996 -8.723187 3.198158
LeftShoulder -10.067714 -2.758324 26.246588
LeftArm -1.790256 29.727089 -101.109404
LeftForeArm 3.946124 -0.000000 11.126504
LeftHand 10.876188 0.000000 -3.304023
LeftHandThumb1 -26.253704 0.000000 33.147579
RightShoulder -19.682223 -13.735894 -23.122167
RightArm 9.910732 62.050455 107.419268
RightForeArm 13.442774 -0.000000 103.555486
RightHand 27.130537 -0.000000 -25.523089
RightHandThumb1 -24.326973 -0.000000 -32.862282
LeftUpLeg 7.172917 -3.714825 -3.899218
LeftLeg 3.158885 -0.000000 -0.000000
LeftFoot -16.078724 11.766124 -20.965548
LeftToeBase 17.430296 -0.000000 -0.000000
RightUpLeg 6.853483 -7.676450 2.225258
RightLeg 3.194061 -0.000000 -0.000000
RightFoot -13.705084 -15.206524 14.261233
RightToeBase 8.956064 -0.000000 -0.000000
2599
root 4.712863 32.351001 2.064111 -3.483141 3.055744 0.707713
Spine 1.641047 -0.927196 -0.858098
Head 8.668846 -8.452998 3.264296
LeftShoulder -10.122039 -2.749668 26.418394
LeftArm -2.008763 29.727403 -101.274236
LeftForeArm 4.009159 0.000000 11.157533
LeftHand 10.856999 -0.000000 -3.375895
LeftHandThumb1 -26.253704 0.000000 33.147579
RightShoulder -20.022050 -13.919638 -22.902763
RightArm 9.867992 62.981955 107.407486
RightForeArm 13.845462 0.000000 103.597488
RightHand 27.115473 -0.000000 -26.827694
RightHandThumb1 -24.326973 -0.000000 -32.862282
LeftUpLeg 7.165186 -3.718462 -3.884402
LeftLeg 3.119610 -0.000000 -0.000000
LeftFoot -15.981395 11.698001 -20.851787
LeftToeBase 17.362338 -0.000000 -0.000000
RightUpLeg 6.861202 -7.796168 2.223931
RightLeg 3.189822 -0.000000 -0.000000
RightFoot -13.706606 -15.226325 14.269004
RightToeBase 8.942156 -0.000000 -0.000000
2600
root 4.718121 32.352514 2.073452 -3.429030 3.183737 0.720786
Spine 1.588919 -1.271094 -0.868551
Head 8.639526 -8.148364 3.299902
LeftShoulder -10.212200 -2.579492 26.534928
LeftArm -2.063550 29.847960 -101.336158
LeftForeArm 3.912510 -0.000000 11.218898
LeftHand 10.841945 -0.000000 -3.809108
LeftHandThumb1 -26.253704 0.000000 33.147579
RightShoulder -20.348899 -14.161816 -22.690927
RightArm 9.847757 63.729730 107.380025
RightForeArm 14.021540 0.000000 103.641438
RightHand 27.102256 -0.000000 -28.270871
RightHandThumb1 -24.326973 -0.000000 -32.862282
LeftUpLeg 7.130477 -3.777210 -3.901614
LeftLeg 3.097465 -0.000000 -0.000000
LeftFoot -15.933348 11.648831 -20.816299
LeftToeBase 17.493598 -0.000000 -0.000000
RightUpLeg 6.840089 -7.867287 2.205645
RightLeg 3.190837 -0.000000 -0.000000
RightFoot -13.754914 -15.264148 14.324358
RightToeBase 9.019764 -0.000000 -0.000000
